#!OML:ASF F:\VICON\USERDATA\INSTALL\rory3\rory3.ASF
:FULLY-SPECIFIED
:DEGREES
463
root -4.43857 17.8036 -5.56921 7.10867 53.3502 7.72818
lowerback 2.58336 3.87275 2.67991
upperback 1.0779 5.29721 4.21106
thorax -0.494931 2.66729 2.66696
lowerneck -22.5708 -3.05738 -7.70178
upperneck 30.6947 -2.00454 2.5967
head 14.4896 -1.27325 2.03382
rclavicle -1.83876e-014 5.40694e-014
rhumerus 8.43342 -1.87754 -94.6181
rradius 53.8794
rwrist 10.077
rhand -29.7332 1.18428
rfingers 7.12502
rthumb -3.05976 -28.7735
lclavicle -1.83876e-014 5.40694e-014
lhumerus 31.7104 -9.56854 58.3535
lradius 31.7093
lwrist -32.1959
lhand -19.9872 23.4415
lfingers 7.12502
lthumb 6.35216 53.3263
rfemur -8.53819 -8.95068 13.8864
rtibia 34.9896
rfoot -32.2212 -20.4183
rtoes 3.97678
lfemur -14.7196 -0.347751 -24.8459
ltibia 23.278
lfoot -6.91714 -5.83666
ltoes -7.91089
464
root -4.44652 17.788 -5.55325 7.27796 53.6674 8.01719
lowerback 2.63313 3.93055 2.6644
upperback 1.10197 5.37576 4.21874
thorax -0.502334 2.70668 2.67827
lowerneck -22.5888 -2.95705 -7.69833
upperneck 30.6922 -1.88155 2.67442
head 14.4842 -1.20775 2.08899
rclavicle -1.00287e-013 -2.8625e-014
rhumerus 8.59308 -0.220193 -94.3009
rradius 52.2735
rwrist 11.1145
rhand -27.7138 1.65532
rfingers 7.12502
rthumb -1.10947 -28.3215
lclavicle -1.00287e-013 -2.8625e-014
lhumerus 31.3751 -7.67646 59.4076
lradius 29.3037
lwrist -31.8686
lhand -18.4421 25.6533
lfingers 7.12502
lthumb 7.84369 55.4878
rfemur -8.3082 -9.22182 13.833
rtibia 34.9776
rfoot -32.1819 -20.1451
rtoes 4.54348
lfemur -14.6598 -0.485607 -24.9506
ltibia 23.251
lfoot -6.85978 -5.99258
ltoes -7.76864
465
root -4.45529 17.7819 -5.53821 7.41312 53.9662 8.12521
lowerback 2.60046 3.97129 2.73076
upperback 1.06946 5.43143 4.20904
thorax -0.511997 2.73446 2.6311
lowerneck -22.6683 -2.88409 -7.45022
upperneck 30.7518 -1.85561 2.64886
head 14.5208 -1.17015 2.04241
rclavicle -3.21534e-014 2.70347e-014
rhumerus 8.73185 1.40027 -94.1186
rradius 50.724
rwrist 12.4957
rhand -25.514 2.12069
rfingers 7.12502
rthumb 1.01512 -27.8566
lclavicle -3.21534e-014 2.70347e-014
lhumerus 31.0399 -5.24181 60.5822
lradius 26.7782
lwrist -32.6296
lhand -17.4211 24.7819
lfingers 7.12502
lthumb 8.82899 54.5772
rfemur -8.21279 -9.31186 13.911
rtibia 34.9058
rfoot -32.3178 -19.9635
rtoes 5.23375
lfemur -14.7622 -0.576286 -24.9361
ltibia 23.3017
lfoot -6.83864 -6.17993
ltoes -7.42474
466
root -4.4625 17.7829 -5.52303 7.56128 54.2625 8.22821
lowerback 2.51913 3.99754 2.78977
upperback 1.06423 5.46343 4.1952
thorax -0.465923 2.7507 2.58962
lowerneck -22.9136 -2.8777 -7.20101
upperneck 30.9037 -1.91213 2.61444
head 14.6407 -1.16983 1.97731
rclavicle -3.12092e-014 3.02153e-014
rhumerus 8.83812 2.75006 -94.185
rradius 49.3048
rwrist 14.0306
rhand -23.1011 2.94697
rfingers 7.12502
rthumb 3.34551 -27.0065
lclavicle -3.12092e-014 3.02153e-014
lhumerus 30.8443 -3.09732 61.4888
lradius 24.7016
lwrist -32.6463
lhand -16.5637 25.326
lfingers 7.12502
lthumb 9.65634 55.0847
rfemur -8.16588 -9.40699 13.9676
rtibia 34.8515
rfoot -32.4755 -19.9951
rtoes 5.51737
lfemur -14.8484 -0.579823 -24.9358
ltibia 23.2994
lfoot -6.7803 -6.42031
ltoes -7.45824
467
root -4.46853 17.7827 -5.50567 7.73787 54.5176 8.38151
lowerback 2.43238 4.05605 2.85552
upperback 1.06853 5.53689 4.15581
thorax -0.404782 2.78753 2.51813
lowerneck -23.1604 -2.90812 -7.09696
upperneck 31.1189 -2.00631 2.70163
head 14.7966 -1.18481 1.98137
rclavicle 2.18663e-015 3.18055e-014
rhumerus 8.93076 4.01549 -94.2005
rradius 48.0073
rwrist 15.2443
rhand -21.1934 3.75322
rfingers 7.12502
rthumb 5.18758 -26.1633
lclavicle 2.18663e-015 3.18055e-014
lhumerus 30.8566 -0.555908 62.7742
lradius 22.4974
lwrist -33.5135
lhand -16.0235 26.3759
lfingers 7.12502
lthumb 10.1775 56.1097
rfemur -8.12181 -9.43339 13.9862
rtibia 34.8521
rfoot -32.7241 -19.9662
rtoes 6.01979
lfemur -14.8468 -0.501432 -24.9777
ltibia 23.169
lfoot -6.64544 -6.69232
ltoes -7.86302
468
root -4.47696 17.7843 -5.48809 8.06955 54.7495 8.705
lowerback 2.3777 4.12704 2.81846
upperback 1.03537 5.62727 4.08366
thorax -0.406746 2.83194 2.46483
lowerneck -23.1705 -2.85987 -7.04626
upperneck 31.2126 -1.99156 2.81686
head 14.8401 -1.1544 2.02604
rclavicle 1.3736e-013 -3.02153e-014
rhumerus 8.85928 5.30419 -94.1767
rradius 46.8873
rwrist 16.1976
rhand -20.1582 4.40361
rfingers 7.12502
rthumb 6.18706 -25.486
lclavicle 1.3736e-013 -3.02153e-014
lhumerus 30.9214 2.35073 64.3655
lradius 20.4019
lwrist -35.0832
lhand -15.1705 28.0937
lfingers 7.12502
lthumb 11.0003 57.7855
rfemur -8.11414 -9.45181 13.9005
rtibia 34.8704
rfoot -33.0167 -19.9043
rtoes 6.63734
lfemur -14.8308 -0.479366 -25.1122
ltibia 22.9882
lfoot -6.55203 -6.94351
ltoes -8.34861
469
root -4.48783 17.7902 -5.47044 8.28713 54.9953 8.85102
lowerback 2.32119 4.2157 2.83086
upperback 1.00346 5.74499 4.1102
thorax -0.412257 2.89098 2.48509
lowerneck -23.106 -2.75716 -7.13204
upperneck 31.2305 -1.83266 2.89586
head 14.8257 -1.08424 2.10559
rclavicle 4.06515e-014 -2.54444e-014
rhumerus 8.77578 6.59551 -94.0044
rradius 45.8104
rwrist 17.0529
rhand -20.0913 4.46294
rfingers 7.12502
rthumb 6.25168 -25.4248
lclavicle 4.06515e-014 -2.54444e-014
lhumerus 31.0952 5.52284 66.1172
lradius 18.3115
lwrist -37.2201
lhand -15.0884 28.275
lfingers 7.12502
lthumb 11.0795 57.9626
rfemur -8.15185 -9.44008 13.9097
rtibia 34.8762
rfoot -33.4251 -19.6262
rtoes 8.67583
lfemur -14.8736 -0.574658 -25.1121
ltibia 22.854
lfoot -6.49355 -7.07894
ltoes -8.52344
470
root -4.49953 17.7992 -5.45382 8.01966 55.2771 8.4495
lowerback 2.32537 4.33811 3.15239
upperback 0.961182 5.92096 4.21919
thorax -0.441377 2.98003 2.41361
lowerneck -23.0733 -2.73345 -7.14438
upperneck 31.2869 -1.78571 2.88744
head 14.8413 -1.06548 2.11511
rclavicle -4.40805e-014 3.18055e-014
rhumerus 8.69191 7.70919 -93.8126
rradius 44.7892
rwrist 17.8053
rhand -20.1193 4.50987
rfingers 7.12502
rthumb 6.2246 -25.3787
lclavicle -4.40805e-014 3.18055e-014
lhumerus 31.4232 8.61154 67.9092
lradius 16.4174
lwrist -39.6216
lhand -15.3123 28.0126
lfingers 7.12502
lthumb 10.8635 57.7116
rfemur -8.16537 -9.19237 14.241
rtibia 34.8621
rfoot -34.0936 -19.241
rtoes 12.5775
lfemur -14.9038 -0.653434 -24.7584
ltibia 22.7478
lfoot -6.40664 -7.267
ltoes -8.73338
471
root -4.50779 17.8028 -5.44093 7.89276 55.4917 8.23124
lowerback 2.32242 4.4356 3.37167
upperback 0.915542 6.05986 4.2756
thorax -0.472999 3.04978 2.3459
lowerneck -23.0771 -2.72498 -7.08237
upperneck 31.4216 -1.80665 2.92992
head 14.904 -1.05937 2.12179
rclavicle 5.73494e-014 -2.54444e-014
rhumerus 8.52429 8.76725 -93.8134
rradius 43.9186
rwrist 18.3941
rhand -19.6611 4.66904
rfingers 7.12502
rthumb 6.66695 -25.206
lclavicle 5.73494e-014 -2.54444e-014
lhumerus 31.9084 12.1225 69.9469
lradius 14.7153
lwrist -42.7524
lhand -15.3544 28.1427
lfingers 7.12502
lthumb 10.823 57.8438
rfemur -8.17124 -9.16576 14.4336
rtibia 34.833
rfoot -34.3795 -19.0459
rtoes 15.3938
lfemur -14.9314 -0.655317 -24.5511
ltibia 22.6688
lfoot -6.33373 -7.41816
ltoes -8.99334
472
root -4.51423 17.8053 -5.42609 8.07629 55.7008 8.35259
lowerback 2.26363 4.51228 3.41076
upperback 0.859475 6.16086 4.22546
thorax -0.489935 3.09944 2.27297
lowerneck -23.0952 -2.68347 -6.87769
upperneck 31.6048 -1.8348 2.9697
head 14.99 -1.03901 2.10275
rclavicle -2.21645e-014 5.56597e-014
rhumerus 8.28217 9.60392 -94.0266
rradius 43.1694
rwrist 18.9001
rhand -19.4604 4.49016
rfingers 7.12502
rthumb 6.86072 -25.3787
lclavicle -2.21645e-014 5.56597e-014
lhumerus 32.5793 15.9855 72.2347
lradius 13.2995
lwrist -46.5473
lhand -15.4439 27.9554
lfingers 7.12502
lthumb 10.7366 57.661
rfemur -8.17713 -9.26427 14.4557
rtibia 34.7697
rfoot -34.4712 -19.0757
rtoes 15.6168
lfemur -15.0118 -0.587726 -24.5712
ltibia 22.6323
lfoot -6.35797 -7.6384
ltoes -9.58913
473
root -4.52253 17.8075 -5.41092 8.30388 55.9509 8.54355
lowerback 2.20877 4.57299 3.40573
upperback 0.836486 6.2384 4.1853
thorax -0.4802 3.13784 2.23646
lowerneck -23.1356 -2.62971 -6.68233
upperneck 31.7968 -1.81992 2.95705
head 15.0826 -1.00901 2.07184
rclavicle 3.50358e-014 -1.11319e-014
rhumerus 8.01744 10.2575 -94.2223
rradius 42.5454
rwrist 19.2044
rhand -19.6403 4.17209
rfingers 7.12502
rthumb 6.68702 -25.7023
lclavicle 3.50358e-014 -1.11319e-014
lhumerus 33.1746 19.1659 74.0382
lradius 12.337
lwrist -49.6192
lhand -15.3867 28.082
lfingers 7.12502
lthumb 10.7918 57.7848
rfemur -8.16373 -9.34291 14.45
rtibia 34.7099
rfoot -34.6587 -19.04
rtoes 14.7328
lfemur -15.0895 -0.505928 -24.6313
ltibia 22.5954
lfoot -6.35694 -7.92982
ltoes -9.82616
474
root -4.53066 17.8096 -5.39699 8.23806 56.2038 8.47803
lowerback 2.22923 4.65104 3.54975
upperback 0.851633 6.34773 4.23857
thorax -0.468237 3.19323 2.20894
lowerneck -23.1586 -2.60614 -6.66883
upperneck 31.9769 -1.79713 3.0049
head 15.1699 -0.988989 2.09907
rclavicle 3.29486e-014 7.95139e-014
rhumerus 7.71382 10.6113 -94.4266
rradius 41.9961
rwrist 19.5528
rhand -19.743 4.07915
rfingers 7.12502
rthumb 6.58793 -25.7984
lclavicle 3.29486e-014 7.95139e-014
lhumerus 33.9235 22.3807 76.0603
lradius 11.572
lwrist -53.0037
lhand -15.241 28.3915
lfingers 7.12502
lthumb 10.9323 58.0869
rfemur -8.07584 -9.45084 14.5942
rtibia 34.6566
rfoot -34.7382 -19.1855
rtoes 13.947
lfemur -15.0535 -0.648127 -24.5155
ltibia 22.5321
lfoot -6.31125 -8.00012
ltoes -9.57263
475
root -4.53875 17.8099 -5.38235 8.18571 56.442 8.515
lowerback 2.27479 4.72284 3.59371
upperback 0.917953 6.44604 4.31332
thorax -0.430624 3.2438 2.25861
lowerneck -23.2485 -2.61026 -6.70918
upperneck 32.1861 -1.78285 3.03857
head 15.2879 -0.981725 2.12869
rclavicle -4.04278e-014 3.18055e-014
rhumerus 7.45336 10.82 -94.6637
rradius 41.4878
rwrist 19.8845
rhand -20.1424 3.86079
rfingers 7.12502
rthumb 6.20237 -26.0284
lclavicle -4.04278e-014 3.18055e-014
lhumerus 34.9833 25.8087 78.4627
lradius 10.917
lwrist -56.7882
lhand -15.0853 28.3202
lfingers 7.12502
lthumb 11.0825 58.0076
rfemur -7.90624 -9.55216 14.6628
rtibia 34.6133
rfoot -34.8625 -19.3093
rtoes 13.8139
lfemur -14.9211 -0.849087 -24.4554
ltibia 22.4552
lfoot -6.27076 -8.02013
ltoes -9.625
476
root -4.54612 17.8083 -5.36848 8.28347 56.6229 8.66194
lowerback 2.24308 4.81437 3.5459
upperback 0.97688 6.56318 4.36187
thorax -0.365014 3.30368 2.33777
lowerneck -23.2793 -2.61487 -6.79486
upperneck 32.33 -1.79674 3.18196
head 15.3661 -0.975586 2.20592
rclavicle 2.56432e-014 4.77083e-014
rhumerus 7.17673 10.8492 -94.9295
rradius 41.0936
rwrist 20.1589
rhand -20.546 3.52477
rfingers 7.12502
rthumb 5.81271 -26.3755
lclavicle 2.56432e-014 4.77083e-014
lhumerus 35.6966 28.0055 79.9948
lradius 10.5491
lwrist -59.1194
lhand -14.9924 28.2422
lfingers 7.12502
lthumb 11.1721 57.9247
rfemur -7.81135 -9.62118 14.6613
rtibia 34.5783
rfoot -34.9665 -19.3665
rtoes 13.8277
lfemur -14.8609 -0.946866 -24.4817
ltibia 22.3888
lfoot -6.25741 -8.04804
ltoes -10.1577
